<?xml version="1.0" standalone="no"?>
<!DOCTYPE svg PUBLIC "-//W3C//DTD SVG 20010904//EN"
 "http://www.w3.org/TR/2001/REC-SVG-20010904/DTD/svg10.dtd">
<svg version="1.0" xmlns="http://www.w3.org/2000/svg"
 width="864.000000pt" height="1184.000000pt" viewBox="0 0 864.000000 1184.000000"
 preserveAspectRatio="xMidYMid meet">

<g transform="translate(0.000000,1184.000000) scale(0.100000,-0.100000)"
fill="#000000" stroke="none">
<path d="M0 5920 l0 -5920 4320 0 4320 0 0 5920 0 5920 -4320 0 -4320 0 0
-5920z m3290 4059 c-14 -25 -17 -24 -14 4 3 30 3 29 14 22 7 -4 7 -13 0 -26z
m-140 -3 c0 -3 -4 -8 -10 -11 -5 -3 -10 -1 -10 4 0 6 5 11 10 11 6 0 10 -2 10
-4z m-135 -57 c-4 -5 -12 -9 -18 -8 -9 0 -8 2 1 6 6 2 9 10 6 15 -4 7 -2 8 5
4 6 -4 9 -12 6 -17z m95 17 c0 -3 -4 -8 -10 -11 -5 -3 -10 -1 -10 4 0 6 5 11
10 11 6 0 10 -2 10 -4z m54 -12 c3 -8 2 -12 -4 -9 -6 3 -10 10 -10 16 0 14 7
11 14 -7z m26 6 c0 -5 -2 -10 -4 -10 -3 0 -8 5 -11 10 -3 6 -1 10 4 10 6 0 11
-4 11 -10z m-153 -32 c-3 -8 -6 -5 -6 6 -1 11 2 17 5 13 3 -3 4 -12 1 -19z
m33 -3 c7 -9 8 -15 2 -15 -5 0 -12 7 -16 15 -3 8 -4 15 -2 15 2 0 9 -7 16 -15z
m41 6 c-7 -5 -10 -14 -7 -20 4 -6 3 -11 -3 -11 -6 0 -8 -6 -5 -14 3 -8 0 -17
-7 -22 -9 -5 -10 -2 -6 9 7 20 -4 22 -21 5 -9 -9 -12 -9 -12 1 0 7 9 15 19 18
11 3 21 13 24 24 3 10 11 19 19 19 11 0 10 -2 -1 -9z m42 -28 c-5 -12 8 -18
30 -14 5 1 6 -3 2 -9 -6 -10 -17 -7 -43 13 -11 8 -11 12 0 18 11 7 11 9 0 9
-7 0 -10 5 -6 11 9 15 24 -9 17 -28z m41 22 c3 -8 1 -15 -4 -15 -6 0 -10 7
-10 15 0 8 2 15 4 15 2 0 6 -7 10 -15z m-151 -22 c-7 -2 -13 -13 -13 -24 0
-10 -4 -19 -9 -19 -5 0 -8 6 -7 13 3 20 16 37 29 36 9 0 9 -2 0 -6z m-49 -35
c-3 -4 -9 -8 -15 -8 -5 0 -9 4 -9 8 0 5 7 9 15 9 8 0 12 -4 9 -9z m-253 -21
c-10 -9 -11 -8 -5 6 3 10 9 15 12 12 3 -3 0 -11 -7 -18z m183 3 c-10 -4 -21
-6 -24 -3 -8 7 24 22 34 16 5 -4 1 -10 -10 -13z m130 -12 c-1 -13 -3 -26 -3
-30 -1 -5 -5 -8 -9 -8 -10 0 -9 30 2 48 11 17 13 15 10 -10z m51 12 c-3 -5 -1
-10 4 -10 6 0 11 -4 11 -10 0 -5 -6 -10 -14 -10 -8 0 -13 8 -11 18 5 23 4 22
11 22 3 0 2 -4 -1 -10z m-212 -12 c2 -7 0 -22 -5 -33 -8 -18 -8 -18 -4 3 2 12
0 22 -5 22 -5 0 -9 5 -9 10 0 14 17 12 23 -2z m125 -13 c-3 -3 -9 2 -12 12 -6
14 -5 15 5 6 7 -7 10 -15 7 -18z m-148 -17 c0 -5 -7 -3 -15 6 -8 8 -15 18 -15
22 0 3 7 1 15 -6 8 -7 15 -17 15 -22z m-116 7 c-4 -8 -11 -15 -16 -15 -6 0 -5
6 2 15 7 8 14 15 16 15 2 0 1 -7 -2 -15z m50 3 c-5 -8 -2 -9 10 -5 14 5 17 3
12 -8 -3 -9 0 -15 10 -15 18 0 44 -24 44 -41 0 -8 -5 -8 -17 2 -13 11 -15 11
-9 1 5 -8 1 -18 -10 -27 -13 -9 -21 -10 -25 -3 -8 13 -39 3 -39 -13 0 -6 7 -8
16 -5 10 4 13 2 8 -6 -5 -8 -2 -9 9 -5 9 3 19 2 23 -4 4 -6 11 -6 20 2 7 6 11
15 8 20 -3 5 0 9 5 9 6 0 11 -5 11 -11 0 -5 5 -7 10 -4 6 4 8 10 5 15 -5 9 24
44 31 37 6 -5 -20 -57 -28 -57 -13 0 -9 -38 5 -44 6 -2 -3 -4 -20 -3 -18 1
-33 5 -33 9 0 4 -5 8 -11 8 -5 0 -7 -4 -4 -10 4 -6 -6 -10 -22 -9 -15 0 -22 3
-15 6 6 2 12 9 12 14 0 6 -4 8 -9 5 -5 -4 -11 0 -14 6 -2 7 -7 10 -11 7 -8 -7
28 -80 38 -80 3 1 6 -2 5 -6 0 -4 8 -10 18 -14 16 -7 16 -8 1 -8 -9 -1 -20 4
-23 9 -4 6 -13 7 -23 1 -9 -4 -23 -6 -29 -4 -7 3 -16 -4 -20 -14 -3 -10 -15
-27 -26 -37 -13 -12 -16 -21 -9 -24 8 -2 8 -7 -1 -17 -7 -7 -15 -11 -18 -9
-15 9 -17 -25 -3 -37 12 -10 12 -14 2 -20 -10 -7 -10 -9 0 -9 6 0 12 -5 12
-11 0 -5 -6 -7 -12 -3 -10 5 -10 4 -1 -6 9 -10 10 -17 2 -27 -9 -10 -7 -13 7
-13 12 0 15 -3 7 -8 -6 -4 -13 -21 -16 -38 -3 -17 -10 -41 -17 -54 -7 -12 -14
-47 -15 -76 -3 -52 -32 -137 -44 -129 -3 1 -6 -9 -7 -23 -3 -94 -14 -131 -28
-99 -3 6 -2 -4 2 -23 4 -19 7 -60 7 -92 0 -31 4 -54 9 -51 5 3 6 -10 2 -30 -5
-26 -2 -44 9 -61 9 -13 15 -30 14 -38 -2 -7 1 -37 5 -66 6 -39 4 -57 -6 -69
-9 -12 -9 -15 0 -9 16 10 15 1 -4 -37 -25 -47 -45 -140 -32 -148 12 -8 1 -49
-13 -49 -5 0 -9 -5 -9 -12 0 -9 3 -9 12 0 16 16 38 -3 38 -32 0 -17 -2 -19
-11 -6 -6 8 -9 11 -7 5 7 -19 33 -70 38 -75 3 -3 10 -14 16 -25 6 -11 17 -20
23 -20 14 0 91 -103 91 -122 0 -7 4 -13 9 -13 4 0 9 -64 10 -142 1 -79 4 -206
6 -283 11 -393 16 -634 18 -867 l3 -257 -25 -12 c-46 -21 -211 -89 -217 -89
-3 0 -2 5 2 11 4 6 8 59 10 118 1 58 6 117 10 131 3 14 9 59 11 100 5 73 4 76
-33 132 -21 32 -50 62 -66 69 -15 6 -28 15 -28 19 0 12 -100 42 -161 47 -78 8
-188 -20 -211 -52 -4 -5 -8 -6 -8 -2 0 10 -52 -26 -83 -57 -45 -45 -59 -76
-73 -162 -3 -21 -8 -42 -10 -46 -2 -3 0 -18 6 -33 8 -20 7 -27 -6 -32 -12 -4
-13 -8 -3 -14 9 -5 10 -14 3 -28 -8 -20 -10 -20 -32 -5 -13 9 -21 22 -18 30 3
8 -1 14 -9 14 -8 0 -15 5 -15 11 0 15 -48 77 -94 123 -63 61 -115 80 -221 81
-96 0 -154 -16 -227 -62 -21 -13 -38 -21 -38 -19 0 2 -30 -25 -66 -60 -40 -38
-81 -68 -103 -74 -20 -6 -61 -18 -91 -26 -62 -16 -118 -40 -140 -59 -8 -8 -21
-15 -29 -17 -18 -4 -45 -29 -66 -62 -10 -14 -21 -23 -26 -20 -5 3 -9 1 -9 -5
0 -17 -75 -32 -140 -29 -33 2 -60 6 -60 10 0 3 -9 4 -20 1 -10 -3 -26 2 -35
11 -9 9 -12 16 -7 16 6 0 8 9 5 20 -4 16 -2 19 11 14 9 -3 16 -1 16 5 0 6 -3
10 -7 10 -5 -1 -18 -1 -31 0 l-22 1 20 20 c26 26 25 40 -2 41 -22 0 -22 1 -3
9 11 5 16 9 11 9 -5 1 -2 8 5 17 12 15 11 16 -11 10 l-25 -7 23 20 c12 10 22
22 22 26 0 3 -10 4 -22 0 -20 -5 -21 -4 -7 7 11 9 15 30 14 71 0 31 3 57 7 57
5 0 8 7 8 16 0 10 -6 14 -15 10 -8 -3 -15 -1 -15 4 0 6 5 10 10 10 18 0 11 40
-7 41 -17 1 -17 2 0 6 10 3 17 14 17 28 0 18 4 23 15 19 8 -4 15 -1 15 7 0 7
-3 9 -7 6 -3 -4 -12 -2 -20 4 -9 9 -13 8 -13 0 0 -6 -5 -11 -12 -11 -7 0 -5 7
5 18 10 11 13 22 7 31 -5 10 -1 20 13 32 12 10 17 18 10 19 -7 0 -10 7 -6 17
4 10 2 14 -4 10 -7 -4 -10 0 -9 10 2 9 9 19 16 21 7 3 10 0 6 -7 -4 -6 -2 -11
3 -11 6 0 11 9 11 20 0 14 -5 18 -17 13 -10 -4 -14 -2 -9 5 3 6 1 14 -6 18 -8
5 -4 10 10 15 22 8 31 29 12 29 -5 0 -10 -6 -10 -12 0 -9 -4 -8 -10 2 -13 19
-13 33 0 25 5 -3 12 6 16 20 4 16 12 24 20 21 9 -3 11 0 7 11 -4 11 -2 14 5 9
8 -5 10 -1 5 10 -4 11 -8 13 -11 6 -2 -7 -16 -11 -30 -11 -21 1 -22 3 -7 6 25
5 49 39 35 48 -6 3 -10 1 -10 -4 0 -6 -8 -11 -17 -11 -15 0 -14 2 3 16 12 10
15 17 8 20 -16 7 -4 46 12 40 15 -6 15 35 0 46 -7 5 -6 12 3 20 11 11 13 11 6
-1 -5 -9 -4 -12 3 -7 12 7 17 36 6 36 -3 0 -14 -5 -25 -10 -12 -7 -19 -7 -19
-1 0 5 9 12 20 16 11 3 19 9 18 13 -4 15 14 52 23 47 17 -11 9 4 -13 25 -19
18 -20 22 -8 30 8 5 23 7 33 4 9 -3 17 0 17 6 0 6 -3 9 -7 7 -5 -3 -21 1 -38
9 l-30 14 33 -5 c24 -3 32 -1 32 10 0 8 6 15 13 15 6 0 4 5 -6 11 -9 6 -14 15
-11 21 4 6 1 13 -5 17 -7 5 -3 12 13 21 28 14 40 36 26 45 -6 4 -10 -1 -10 -9
0 -9 -4 -16 -10 -16 -5 0 -7 7 -4 15 5 11 2 13 -10 9 -9 -3 -16 -11 -16 -17 0
-6 -3 -8 -6 -5 -10 10 19 46 33 41 21 -8 15 14 -8 30 l-21 15 21 7 c11 3 20 9
20 13 -1 4 -1 14 1 22 1 11 4 9 9 -5 6 -15 3 -23 -12 -31 -19 -11 -18 -12 10
-16 23 -3 30 -1 26 9 -3 7 0 13 7 13 6 0 8 5 3 13 -13 21 -12 39 2 33 11 -4
12 1 3 25 -7 22 -7 33 2 44 7 8 9 15 4 15 -4 0 2 10 14 23 12 13 21 25 20 28
-2 2 2 -2 9 -9 15 -18 38 -3 39 26 0 12 -3 22 -8 22 -4 0 -8 4 -8 9 0 5 7 8
16 7 9 0 19 6 21 14 4 13 3 13 -6 0 -9 -13 -11 -13 -11 2 0 23 10 27 39 17 15
-6 21 -14 17 -24 -3 -8 -9 -21 -12 -29 -4 -11 0 -13 18 -9 16 3 19 2 10 -5 -9
-6 -11 -18 -6 -37 5 -21 4 -26 -6 -20 -9 6 -10 3 -1 -13 15 -28 14 -32 -6 -33
-15 -1 -16 -2 -2 -6 13 -3 16 -16 15 -58 -1 -30 3 -56 9 -58 6 -2 4 -11 -5
-22 -9 -11 -11 -20 -4 -22 6 -2 9 -36 8 -88 -1 -50 2 -87 8 -91 7 -4 7 -9 0
-13 -11 -7 21 -86 35 -86 4 0 7 -3 6 -7 -4 -10 28 -18 60 -14 15 2 27 -1 27
-5 0 -10 43 -12 53 -3 5 6 61 8 422 19 94 3 224 7 290 10 204 8 352 8 364 1 6
-4 11 -4 11 1 0 4 33 8 73 8 87 1 126 18 148 65 14 29 17 84 18 385 1 192 4
409 6 480 4 135 5 143 4 173 0 9 2 48 4 85 2 37 0 70 -5 73 -4 3 -5 11 -1 17
4 6 8 57 9 112 2 55 3 100 4 100 7 0 5 63 -3 72 -6 9 -4 15 7 19 11 4 13 11 6
23 -6 12 -5 22 2 29 9 9 9 12 0 12 -7 0 -12 4 -12 10 0 5 8 7 18 4 15 -5 15
-4 -2 10 -12 10 -17 23 -13 36 7 25 -11 82 -23 75 -5 -3 -13 3 -19 12 -6 10
-11 14 -11 10 0 -5 -5 -5 -11 -1 -8 4 -7 9 2 16 10 7 8 8 -8 5 -13 -3 -25 -1
-28 4 -3 4 -38 9 -78 9 -289 3 -337 5 -337 16 0 6 -12 24 -26 39 -21 23 -24
31 -15 49 11 21 11 21 5 -1 -3 -13 -1 -23 5 -23 5 0 17 -3 25 -6 12 -5 15 -2
10 10 -4 11 -1 16 10 16 9 0 16 -4 16 -10 0 -5 5 -10 11 -10 5 0 7 5 4 10 -3
6 1 10 11 10 13 0 14 3 5 14 -9 11 -6 16 19 24 36 13 57 7 63 -16 4 -14 6 -13
12 5 4 13 11 21 15 18 4 -3 14 3 21 12 12 15 12 16 -5 10 -13 -5 -17 -3 -13 7
7 18 -18 42 -26 26 -3 -6 -5 -6 -3 1 3 19 56 21 56 2 0 -13 3 -13 15 -3 13 11
13 15 3 21 -9 6 -9 9 -1 9 6 0 15 -5 19 -11 4 -8 9 -8 18 1 8 8 7 13 -2 19
-11 6 -10 10 4 15 9 3 18 5 20 4 7 -8 -30 -67 -44 -71 -12 -3 -10 -5 6 -6 12
0 22 4 22 9 0 6 8 5 20 -2 14 -9 16 -14 7 -20 -9 -6 -8 -8 3 -8 8 1 24 8 35
17 17 14 18 15 2 9 -21 -7 -60 11 -52 24 3 5 12 7 19 4 8 -3 16 4 19 16 3 13
10 19 17 15 6 -4 9 -14 5 -24 -5 -12 -3 -13 6 -4 6 6 18 9 25 6 8 -3 14 0 14
6 0 6 -9 11 -20 11 -11 0 -20 5 -20 12 0 6 3 8 7 5 3 -4 13 -1 21 6 13 9 14 9
8 0 -5 -9 -2 -11 8 -7 17 7 22 24 7 24 -5 0 -12 7 -15 16 -5 14 -4 15 8 5 17
-14 36 -7 36 14 0 8 5 17 12 21 7 5 9 2 5 -9 -3 -8 0 -18 8 -21 8 -3 16 0 18
7 3 9 8 8 20 -2 18 -14 22 -5 8 18 -5 7 -14 10 -20 7 -6 -4 -11 -2 -11 4 0 8
10 9 29 5 18 -4 32 -2 36 6 6 8 17 1 36 -21 16 -18 29 -28 29 -22 0 6 -4 13
-9 16 -4 3 -6 17 -3 31 5 27 36 50 52 40 6 -3 10 -1 10 5 0 6 5 8 10 5 15 -9
12 -27 -2 -19 -7 4 -10 3 -5 -1 4 -5 0 -16 -8 -25 -14 -15 -12 -17 17 -15 42
3 60 -4 51 -19 -3 -6 -2 -8 2 -3 5 4 9 16 10 27 1 15 -3 19 -22 16 -12 -3 -27
-7 -33 -11 -5 -3 -10 -2 -10 4 0 6 11 13 25 17 14 3 22 11 19 16 -4 6 -3 13 2
17 5 3 14 16 21 28 10 17 10 23 0 26 -7 3 -2 4 11 4 21 -1 33 -27 11 -27 -5 0
-7 -4 -4 -10 12 -19 38 -11 32 10 -6 22 8 28 16 8 4 -9 8 -10 14 -3 4 6 17 10
28 10 11 0 31 5 45 11 18 9 31 9 44 2 20 -11 37 -1 17 11 -9 6 -7 10 8 14 25
6 48 57 30 68 -10 6 -5 29 7 29 3 0 2 -5 -2 -12z m189 -13 c-7 -21 -13 -19
-13 6 0 11 4 18 10 14 5 -3 7 -12 3 -20z m-30 -6 c5 -3 2 -9 -5 -12 -9 -3 -14
3 -15 15 -1 11 1 16 5 12 4 -5 11 -12 15 -15z m-383 -14 c0 -8 -4 -15 -10 -15
-5 0 -7 7 -4 15 4 8 8 15 10 15 2 0 4 -7 4 -15z m55 -6 c11 -16 1 -19 -13 -3
-7 8 -8 14 -3 14 5 0 13 -5 16 -11z m62 5 c-3 -3 -12 -4 -19 -1 -8 3 -5 6 6 6
11 1 17 -2 13 -5z m91 -9 c3 -3 2 -8 -2 -12 -4 -4 -11 -1 -16 7 -7 11 -10 12
-10 2 0 -7 -4 -10 -10 -7 -18 11 -11 24 11 20 12 -3 24 -7 27 -10z m-261 -1
c-3 -3 -12 -4 -19 -1 -8 3 -5 6 6 6 11 1 17 -2 13 -5z m383 2 c0 -3 -4 -8 -10
-11 -5 -3 -10 -1 -10 4 0 6 5 11 10 11 6 0 10 -2 10 -4z m-195 -16 c3 -5 1
-10 -4 -10 -6 0 -11 -8 -11 -17 0 -15 -2 -16 -10 -3 -9 13 -14 7 -11 -12 0 -4
-7 -4 -16 -1 -14 6 -14 8 3 20 10 7 22 13 27 13 4 0 5 5 2 10 -3 6 -2 10 4 10
5 0 13 -4 16 -10z m-161 -15 c-4 -8 -11 -15 -16 -15 -6 0 -5 6 2 15 7 8 14 15
16 15 2 0 1 -7 -2 -15z m186 0 c0 -8 -4 -15 -10 -15 -5 0 -7 7 -4 15 4 8 8 15
10 15 2 0 4 -7 4 -15z m-270 -15 c0 -5 -5 -10 -11 -10 -5 0 -7 5 -4 10 3 6 8
10 11 10 2 0 4 -4 4 -10z m160 -4 c0 -3 -4 -8 -10 -11 -5 -3 -10 -1 -10 4 0 6
5 11 10 11 6 0 10 -2 10 -4z m-120 -26 c0 -5 -5 -10 -11 -10 -5 0 -7 5 -4 10
3 6 8 10 11 10 2 0 4 -4 4 -10z m-40 -5 c0 -2 -9 -9 -20 -15 -12 -6 -20 -7
-20 -1 0 5 8 12 18 14 9 3 18 5 20 6 1 0 2 -1 2 -4z m50 -30 c-9 -11 -16 -12
-26 -4 -7 6 -19 7 -26 3 -10 -5 -10 -4 -1 6 9 10 15 10 26 1 12 -9 16 -8 21 5
4 9 9 14 13 11 3 -4 0 -13 -7 -22z m425 6 c-3 -6 -11 -11 -16 -11 -5 0 -4 6 3
14 14 16 24 13 13 -3z m-535 -12 c0 -5 5 -7 10 -4 6 3 10 2 10 -3 0 -6 -11 -9
-25 -8 -25 1 -31 7 -18 19 10 10 23 8 23 -4z m-40 -37 c0 -4 -9 -8 -20 -9 -11
-1 -18 2 -15 8 7 11 35 12 35 1z m-205 -112 c-3 -5 -12 -10 -18 -10 -7 0 -6 4
3 10 19 12 23 12 15 0z m-221 -75 c-4 -8 -10 -12 -15 -9 -14 8 -10 24 6 24 9
0 12 -6 9 -15z m-13 -33 c-7 -2 -18 1 -23 6 -8 8 -4 9 13 5 13 -4 18 -8 10
-11z m53 3 c-7 -17 -20 -20 -28 -6 -4 5 0 12 6 14 23 9 28 7 22 -8z m-114 -30
c0 -1 -6 -8 -14 -15 -12 -9 -15 -8 -13 8 0 12 6 18 14 15 7 -3 13 -6 13 -8z
m1936 -72 c29 -14 38 -15 42 -5 3 10 8 8 18 -5 8 -11 13 -13 14 -5 0 6 5 12
11 12 6 0 9 -6 6 -14 -3 -8 2 -20 10 -28 15 -11 16 -11 10 5 -6 16 -5 16 18 1
14 -9 25 -24 26 -33 0 -10 4 -7 11 9 9 22 11 23 17 7 4 -10 11 -18 15 -17 5 1
12 -4 17 -11 6 -10 11 -10 23 0 9 8 16 9 16 4 0 -5 14 -8 30 -7 17 1 30 -2 30
-7 0 -5 5 -9 11 -9 6 0 9 6 6 14 -7 19 43 33 126 36 9 1 16 4 13 8 -2 4 18 7
44 7 26 0 46 -3 43 -7 -7 -13 12 -9 26 5 11 10 13 9 8 -5 -7 -19 14 -40 34
-35 8 2 11 2 6 0 -4 -3 -4 -10 0 -16 14 -23 11 -36 -14 -53 -20 -13 -23 -18
-12 -25 11 -6 8 -9 -8 -9 -12 0 -25 -5 -28 -10 -4 -6 -3 -10 2 -9 4 1 17 1 28
0 19 -2 18 -3 -2 -11 -13 -5 -23 -14 -23 -20 0 -6 -5 -8 -10 -5 -6 3 -22 -2
-38 -13 -48 -33 -52 -34 -46 -15 5 16 4 16 -10 -1 -8 -10 -13 -22 -11 -26 2
-4 -3 -7 -11 -7 -8 0 -13 6 -10 13 4 10 0 11 -20 2 -13 -6 -23 -16 -21 -22 3
-6 -2 -19 -11 -28 -13 -16 -13 -17 6 -13 26 5 62 -5 62 -16 0 -5 -6 -6 -14 -3
-7 3 -16 -2 -20 -11 -3 -9 -2 -14 3 -10 5 3 11 0 13 -6 2 -6 15 -2 31 11 21
17 26 18 20 5 -5 -15 -3 -15 16 -3 18 11 23 11 31 -2 8 -12 10 -12 10 -1 0 11
3 11 15 1 8 -6 20 -8 27 -4 7 4 10 4 6 -1 -9 -9 31 -47 42 -40 4 3 8 -7 8 -21
0 -19 -5 -24 -17 -20 -13 5 -13 4 2 -8 17 -14 24 -32 8 -21 -11 6 -43 -23 -37
-34 3 -4 -11 -20 -30 -37 -20 -16 -49 -41 -65 -57 -17 -15 -34 -25 -39 -22 -5
3 -13 -2 -18 -10 -5 -10 -24 -17 -45 -18 -20 -1 -37 -6 -37 -10 0 -5 -4 -5
-10 -2 -5 3 -10 1 -10 -4 0 -6 -11 -11 -25 -11 -14 0 -25 -6 -25 -12 -1 -7 -9
-3 -19 9 -14 17 -21 19 -31 10 -10 -9 -14 -9 -17 2 -4 10 -7 10 -13 1 -4 -6
-25 -12 -46 -13 -22 0 -45 -7 -52 -14 -10 -9 -19 -10 -32 -3 -25 13 -51 13
-30 0 11 -7 6 -8 -17 -4 -18 4 -40 3 -50 -1 -26 -10 -263 -12 -263 -1 0 5 -6
3 -14 -3 -7 -6 -20 -9 -29 -5 -8 3 -18 1 -21 -5 -4 -6 -13 -8 -20 -5 -8 3 -32
-4 -55 -16 -23 -11 -41 -18 -41 -14 0 3 -7 -1 -15 -10 -18 -18 -20 -46 -3 -46
7 0 -2 -10 -20 -22 -36 -26 -45 -46 -47 -105 -1 -38 2 -43 27 -52 21 -7 37 -6
63 5 26 10 41 12 55 4 25 -13 51 -13 28 1 -24 13 -23 28 4 56 27 29 48 29 48
1 1 -35 26 -60 67 -68 35 -7 34 -8 -22 -10 -33 -1 -52 -4 -42 -7 9 -2 17 -11
17 -20 0 -11 -3 -13 -12 -5 -10 7 -18 3 -31 -14 -17 -23 -17 -24 8 -30 14 -3
56 -3 93 0 37 4 95 8 130 10 47 3 67 9 77 22 11 14 14 15 15 5 0 -17 47 43 55
70 3 10 12 16 19 13 8 -3 18 8 26 28 21 56 30 72 53 89 37 27 63 31 81 14 9
-9 16 -13 16 -9 0 13 31 -20 46 -48 15 -28 20 -120 11 -183 -3 -16 1 -50 9
-75 8 -25 14 -57 14 -72 0 -31 19 -78 32 -78 18 0 6 -32 -22 -60 -16 -16 -30
-34 -30 -40 0 -5 -7 -10 -15 -10 -8 0 -15 -4 -15 -10 0 -5 -7 -10 -15 -10 -8
0 -15 -5 -15 -10 0 -10 -37 -28 -72 -35 -9 -2 -22 3 -29 11 -14 17 -58 13
-111 -8 -36 -13 -35 -18 5 -45 48 -33 67 -38 67 -19 0 9 8 16 18 17 9 0 27 2
40 3 26 3 27 0 6 -21 -15 -15 -13 -18 22 -35 48 -23 48 -23 34 -47 -9 -17 -8
-22 5 -27 12 -5 13 -9 4 -20 -9 -11 -8 -21 1 -44 15 -36 53 -38 89 -3 13 13
29 23 35 23 22 0 39 -18 33 -34 -11 -28 -57 -38 -137 -31 -66 5 -84 3 -145
-20 -39 -15 -75 -31 -82 -37 -13 -10 -58 14 -66 36 -7 19 -57 27 -57 10 0 -8
-7 -14 -15 -14 -20 0 -55 -71 -60 -121 -5 -49 12 -102 31 -95 7 3 15 0 18 -7
2 -7 5 -4 5 6 1 9 8 17 16 17 8 0 17 11 21 25 4 14 9 24 11 21 3 -3 20 6 38
19 17 14 36 25 42 25 5 0 23 7 39 14 30 15 100 27 108 18 6 -5 68 -13 104 -12
17 0 22 -6 22 -25 0 -29 -17 -42 -23 -18 -4 14 -5 13 -6 -4 0 -13 -7 -23 -13
-24 -7 -1 -22 -2 -33 -3 -13 -1 -20 -8 -19 -22 0 -24 -14 -26 -70 -12 -33 8
-41 7 -57 -11 -15 -16 -17 -25 -8 -43 12 -25 101 -74 117 -64 20 12 116 15
123 5 3 -6 23 -11 43 -11 20 0 33 -4 30 -9 -3 -5 2 -9 10 -9 9 0 16 -4 16 -10
0 -5 7 -10 15 -10 8 0 15 -4 15 -10 0 -5 -6 -10 -12 -10 -10 0 -9 -3 1 -9 11
-7 8 -14 -13 -32 -27 -23 -41 -28 -88 -31 -16 0 -28 -5 -28 -10 0 -5 -4 -7 -9
-4 -5 4 -20 2 -33 -3 -12 -6 -17 -10 -9 -10 11 -1 11 -4 1 -16 -6 -8 -17 -13
-23 -12 -7 1 -11 -3 -10 -10 2 -8 -4 -10 -14 -6 -11 4 -14 3 -9 -5 4 -7 5 -12
2 -12 -2 0 -11 -3 -20 -6 -11 -4 -16 0 -16 11 0 14 -5 12 -25 -11 -14 -16 -25
-23 -25 -17 0 9 -11 11 -32 9 -18 -3 -33 -5 -33 -6 0 -8 -52 -4 -62 4 -29 25
-39 31 -58 31 -12 0 -21 9 -25 25 -4 17 -8 21 -13 12 -11 -16 -67 12 -67 33 0
8 -5 15 -11 15 -5 0 -7 -6 -3 -12 7 -12 -7 -2 -65 50 -13 12 -28 19 -33 16 -4
-3 -8 1 -8 8 0 7 -12 22 -27 33 -16 11 -40 32 -55 48 -14 15 -29 23 -32 18 -4
-5 0 -12 6 -14 10 -4 10 -6 1 -6 -35 -2 -101 144 -139 309 -47 207 -41 191
-70 180 -63 -24 -165 3 -178 48 -2 9 -7 85 -10 167 -4 110 -3 141 5 115 19
-67 42 -110 63 -116 12 -4 28 -15 37 -25 15 -18 49 -26 49 -13 0 3 -9 19 -20
34 -12 16 -16 31 -11 34 5 4 8 23 5 44 -3 33 -2 31 16 -18 l19 -55 -7 45 c-11
68 -6 185 11 296 9 54 21 169 27 254 6 85 17 178 24 205 19 67 39 115 47 115
4 0 18 20 30 45 12 25 26 45 31 45 4 0 8 9 8 20 0 11 3 20 8 20 4 0 16 20 27
45 11 25 23 45 28 45 4 0 7 6 7 13 0 7 9 24 19 37 11 14 38 49 61 78 22 28 47
52 56 52 8 0 13 4 9 9 -6 10 28 33 42 29 4 -2 22 2 38 8 83 31 105 35 124 25
14 -8 20 -7 25 4 7 19 8 19 52 -2z m-2096 -8 c0 -12 -19 -12 -23 0 -4 9 -1 12
9 8 7 -3 14 -7 14 -8z m56 -12 c1 -12 -5 -24 -14 -28 -11 -4 -13 0 -8 19 4 15
1 27 -7 30 -6 3 -3 5 8 3 13 -1 20 -10 21 -24z m-96 7 c0 -5 -2 -10 -4 -10 -3
0 -8 5 -11 10 -3 6 -1 10 4 10 6 0 11 -4 11 -10z m138 -22 c2 -9 -4 -18 -13
-21 -8 -4 -15 -2 -15 3 0 6 5 10 11 10 8 0 7 6 -2 17 -12 14 -12 16 1 11 8 -2
16 -12 18 -20z m4502 -93 l4 -80 6 79 c6 88 21 107 44 54 l14 -33 1 33 c1 22
6 32 16 32 13 0 15 -14 13 -82 -3 -92 -17 -109 -41 -51 l-16 38 0 -37 c-1 -28
-5 -37 -21 -40 -42 -7 -2 -27 59 -30 68 -3 81 -13 81 -65 0 -22 2 -25 10 -13
5 8 10 27 10 42 0 26 16 46 27 34 3 -3 -1 -38 -8 -78 -11 -54 -19 -74 -32 -76
-11 -2 -17 3 -17 17 0 10 -5 42 -11 69 -10 44 -14 48 -35 44 -27 -5 -34 -42
-9 -42 8 0 15 -7 15 -15 0 -8 -7 -15 -15 -15 -8 0 -15 -7 -15 -15 0 -8 9 -15
20 -15 11 0 20 -7 20 -15 0 -10 -11 -15 -35 -15 -21 0 -35 5 -35 12 0 9 -3 9
-12 0 -21 -21 -37 -13 -47 21 l-9 32 -1 -32 c-1 -22 -6 -33 -16 -33 -8 0 -15
3 -16 8 -6 52 -13 182 -10 182 3 0 12 -7 22 -16 13 -12 19 -12 25 -3 4 7 3 10
-4 5 -19 -11 -25 14 -24 98 1 65 -1 75 -9 50 -6 -22 -17 -33 -34 -36 -13 -3
-22 -1 -19 3 3 5 -2 9 -10 9 -19 0 -19 1 -6 35 9 24 14 26 62 23 l53 -3 5 -80z
m226 -1 c15 -70 11 -91 -10 -61 -17 22 -32 22 -45 0 -17 -31 -21 -8 -9 58 20
112 41 114 64 3z m248 73 c14 -10 16 -25 14 -77 -3 -60 -5 -65 -27 -68 -13 -2
-27 0 -32 5 -15 15 -15 118 0 136 16 20 22 21 45 4z m156 -53 c0 -57 3 -67 20
-71 30 -8 24 -23 -9 -23 -17 0 -31 6 -35 16 -8 21 -8 129 1 137 17 18 23 2 23
-59z m119 50 c21 -15 23 -22 18 -70 -7 -68 -11 -74 -53 -74 l-34 0 0 73 c0 41
3 77 7 80 11 12 38 8 62 -9z m181 -25 c0 -20 5 -29 16 -29 11 0 15 8 13 28 -2
15 0 28 4 30 25 8 29 -1 23 -65 -3 -38 -6 -71 -6 -75 0 -5 -4 -8 -10 -8 -5 0
-10 14 -10 30 0 20 -5 30 -15 30 -10 0 -15 -10 -15 -30 0 -16 -4 -30 -10 -30
-5 0 -10 12 -10 28 0 54 -13 102 -26 102 -10 0 -14 -17 -14 -65 0 -51 -3 -65
-15 -65 -12 0 -15 13 -15 60 0 45 -4 62 -15 66 -30 12 -14 23 38 26 65 4 67 3
67 -33z m125 31 c11 -17 33 -150 25 -150 -4 0 -15 10 -24 23 -9 12 -19 18 -22
12 -12 -26 -23 -39 -29 -33 -6 5 9 114 20 146 5 14 21 16 30 2z m113 -7 c2 -7
-3 -13 -12 -13 -12 0 -16 -14 -18 -62 -2 -38 -8 -63 -15 -66 -10 -3 -13 13
-13 57 0 48 -3 61 -15 61 -8 0 -15 9 -15 21 0 18 5 20 42 17 23 -2 43 -9 46
-15z m-857 -30 c1 -39 3 -38 13 10 10 42 36 35 37 -10 l1 -38 10 38 c12 44 40
53 32 10 -3 -16 -8 -48 -12 -73 -9 -53 -34 -62 -43 -15 l-5 30 -8 -32 c-12
-51 -32 -41 -40 20 -4 28 -10 62 -13 75 -4 16 -1 22 11 22 12 0 16 -10 17 -37z
m275 12 c3 -14 3 -33 -2 -42 -8 -21 -8 -20 0 -55 5 -20 3 -28 -8 -28 -7 0 -17
15 -22 33 l-8 32 -3 -32 c-3 -20 -10 -33 -19 -33 -11 0 -14 16 -14 75 l0 75
35 0 c29 0 36 -4 41 -25z m-4212 -30 c-4 -8 -8 -15 -10 -15 -2 0 -4 7 -4 15 0
8 4 15 10 15 5 0 7 -7 4 -15z m3921 -150 c0 -5 -10 -11 -22 -13 -29 -4 -31
-38 -2 -45 23 -6 17 -27 -7 -27 -8 0 -14 -9 -14 -20 0 -13 7 -20 20 -20 11 0
20 -4 20 -10 0 -5 -16 -10 -35 -10 l-35 0 0 64 c0 86 5 98 44 94 17 -2 31 -7
31 -13z m76 5 c19 -11 27 -60 9 -60 -6 0 -7 -18 -3 -45 7 -51 -11 -64 -20 -15
-4 17 -11 30 -17 30 -5 0 -10 -13 -10 -30 0 -16 -4 -30 -10 -30 -6 0 -10 33
-10 80 0 74 2 80 21 80 11 0 29 -5 40 -10z m137 -17 c3 -24 -13 -32 -20 -11
-3 7 -10 8 -17 4 -10 -6 -5 -16 18 -37 34 -31 38 -46 18 -73 -16 -21 -45 -18
-61 6 -13 21 0 36 16 20 16 -16 28 -15 28 2 0 7 -11 21 -25 30 -42 27 -27 91
20 84 12 -2 21 -12 23 -25z m92 12 c0 -8 -4 -15 -10 -15 -5 0 -10 -28 -12 -62
-2 -38 -8 -63 -15 -66 -10 -3 -13 14 -13 62 0 52 -3 66 -15 66 -8 0 -15 7 -15
15 0 11 11 15 40 15 29 0 40 -4 40 -15z m79 1 c19 -22 10 -126 -11 -140 -33
-20 -53 4 -56 68 -3 61 8 86 38 86 10 0 23 -6 29 -14z m92 -7 c17 -27 10 -59
-16 -71 -18 -8 -25 -19 -25 -40 0 -18 -5 -28 -15 -28 -12 0 -15 15 -15 73 0
41 3 76 6 79 10 11 56 1 65 -13z m93 -1 c13 -21 0 -36 -16 -20 -7 7 -16 12
-20 12 -16 0 -7 -27 17 -50 27 -26 32 -49 13 -68 -19 -19 -46 -14 -59 9 -10
20 -9 21 15 15 33 -8 33 6 1 38 -29 29 -31 48 -9 71 20 19 43 16 58 -7z m136
-13 c0 -44 18 -46 22 -3 2 17 9 33 16 36 9 3 12 -17 12 -77 0 -84 -13 -108
-24 -46 -9 44 -24 45 -28 3 -2 -17 -9 -33 -15 -36 -10 -3 -13 17 -13 77 0 65
3 81 15 81 10 0 15 -11 15 -35z m140 24 c0 -6 -9 -13 -20 -16 -23 -6 -27 -43
-5 -43 8 0 15 -4 15 -10 0 -5 -7 -10 -15 -10 -8 0 -15 -9 -15 -20 0 -13 7 -20
20 -20 11 0 20 -7 20 -16 0 -11 -8 -14 -32 -12 l-33 3 -3 78 -3 77 36 0 c19 0
35 -5 35 -11z m-3090 -13 c0 -3 -4 -8 -10 -11 -5 -3 -10 -1 -10 4 0 6 5 11 10
11 6 0 10 -2 10 -4z m1840 -26 c0 -5 -2 -10 -4 -10 -3 0 -8 5 -11 10 -3 6 -1
10 4 10 6 0 11 -4 11 -10z m3 -35 c-3 -9 -8 -14 -10 -11 -3 3 -2 9 2 15 9 16
15 13 8 -4z m-93 -45 c0 -5 -5 -10 -11 -10 -5 0 -7 5 -4 10 3 6 8 10 11 10 2
0 4 -4 4 -10z m90 0 c0 -5 -5 -10 -11 -10 -5 0 -7 5 -4 10 3 6 8 10 11 10 2 0
4 -4 4 -10z m1020 -14 c0 -22 -11 -46 -21 -46 -10 0 -12 43 -2 53 11 12 23 8
23 -7z m-1050 -14 c-8 -3 -20 -9 -27 -14 -8 -6 -10 -4 -6 10 3 14 11 18 26 14
15 -4 17 -7 7 -10z m53 -17 c-3 -9 -8 -14 -10 -11 -3 3 -2 9 2 15 9 16 15 13
8 -4z m211 -41 c7 -19 -12 -28 -29 -14 -27 22 -17 -11 10 -36 28 -26 32 -55
10 -78 -15 -15 -59 -16 -73 -1 -4 4 0 4 8 0 13 -8 13 -7 1 8 -15 18 -57 24
-46 6 4 -6 13 -8 21 -5 8 3 11 0 8 -8 -3 -8 -1 -17 5 -21 6 -3 11 -37 11 -76
0 -43 4 -69 11 -69 7 0 10 23 7 65 -2 54 0 65 12 63 11 -2 16 -21 18 -73 3
-58 0 -72 -15 -83 -24 -17 -23 -35 2 -47 17 -9 20 -21 20 -75 0 -59 -2 -66
-25 -77 -14 -7 -20 -13 -13 -13 12 0 5 -41 -9 -51 -5 -3 -4 -17 1 -32 6 -15 7
-27 3 -27 -4 0 -8 -12 -7 -27 0 -26 -4 -28 -45 -33 l-45 -5 0 -100 0 -100 60
-6 c33 -3 54 -6 47 -7 -10 -1 -12 -11 -7 -31 3 -16 8 -56 10 -89 3 -67 -1 -72
-77 -72 l-38 0 3 -97 2 -98 58 -3 c52 -3 57 -5 52 -23 -4 -10 -2 -19 4 -19 5
0 13 -9 16 -20 3 -11 11 -20 18 -20 6 0 21 -10 34 -22 22 -21 34 -23 149 -23
92 0 124 -3 124 -12 0 -13 -113 -18 -373 -18 l-77 0 0 -102 0 -103 540 0 540
0 1 98 c1 53 3 89 6 80 2 -10 9 -18 15 -18 5 0 7 8 4 18 -5 15 -5 15 6 1 7 -9
19 -14 27 -11 9 3 12 0 8 -10 -3 -9 0 -21 6 -28 9 -10 9 -11 0 -6 -7 4 -17 -3
-23 -15 -7 -12 -8 -19 -2 -15 16 10 44 -5 38 -20 -3 -9 2 -14 14 -14 13 0 18
5 14 15 -4 9 0 15 8 15 21 0 19 -35 -3 -48 -15 -10 -19 -9 -19 0 0 9 -3 9 -9
-1 -6 -9 -5 -21 2 -32 9 -14 8 -21 -2 -31 -12 -11 -13 -10 -8 4 3 9 -2 23 -12
32 -22 20 -28 20 -48 1 -14 -14 -12 -15 16 -10 26 4 31 2 31 -14 0 -23 16 -36
25 -22 10 18 36 0 30 -20 -4 -11 -2 -19 3 -19 5 0 12 8 14 18 5 21 -17 69 -25
53 -4 -8 -5 -8 -3 0 5 25 34 17 40 -11 3 -15 11 -28 18 -27 36 1 59 -4 53 -12
-3 -5 -20 -7 -39 -4 -28 4 -34 2 -39 -18 -7 -28 -5 -31 17 -23 14 5 15 9 5 15
-8 4 -10 11 -6 16 5 4 12 1 17 -6 9 -15 4 -37 -14 -59 -8 -11 -12 -11 -23 4
-14 19 -17 15 -7 -10 7 -18 34 -22 34 -6 0 7 6 7 20 0 14 -7 20 -7 20 0 0 5
-6 10 -12 11 -9 0 -9 2 1 6 11 5 11 7 0 15 -11 7 -9 8 6 6 13 -3 19 -10 17
-22 -3 -14 0 -16 17 -7 24 13 42 14 20 1 -11 -6 -15 -18 -12 -34 4 -21 2 -24
-16 -19 -13 3 -21 1 -21 -7 0 -8 11 -11 30 -8 21 3 30 0 30 -10 0 -10 -8 -12
-30 -7 -20 4 -30 3 -30 -5 0 -6 4 -9 9 -5 5 3 11 -5 13 -17 2 -16 9 -22 21
-20 9 2 17 -2 17 -8 0 -9 -20 -14 -46 -11 -7 1 -14 -6 -18 -14 -3 -9 -2 -14 2
-11 5 3 21 7 36 10 16 3 34 13 41 22 12 18 36 12 34 -9 0 -9 -2 -9 -6 1 -8 19
-23 14 -23 -9 0 -11 -4 -17 -10 -14 -5 3 -10 0 -10 -8 0 -10 8 -13 28 -10 27
4 27 4 4 -9 -12 -8 -19 -17 -15 -21 4 -4 -4 -6 -17 -5 -13 2 -25 -3 -27 -12
-4 -12 -3 -13 5 -1 8 10 12 6 17 -18 4 -18 13 -35 21 -38 9 -3 12 -13 9 -24
-4 -11 -2 -19 4 -19 16 0 23 20 12 34 -8 10 -7 17 4 26 9 7 18 10 22 6 3 -3 1
-6 -5 -6 -7 0 -12 -4 -12 -9 0 -5 7 -8 16 -7 9 0 19 -6 21 -14 4 -12 3 -12 -5
-1 -7 10 -11 10 -17 1 -4 -6 -3 -16 3 -22 13 -13 4 -40 -11 -31 -6 3 -7 1 -3
-5 4 -6 13 -9 21 -5 8 3 15 0 15 -7 0 -7 7 -10 15 -6 8 3 15 1 15 -5 0 -6 -15
-10 -32 -9 -53 3 -68 1 -68 -11 0 -6 9 -8 20 -4 16 5 19 3 13 -12 -6 -16 -5
-16 10 -4 21 16 23 5 3 -15 -11 -11 -16 -11 -20 -1 -5 9 -7 9 -12 -1 -5 -10
-9 -10 -20 -1 -12 10 -13 9 -8 -5 3 -9 13 -16 22 -16 13 0 14 -2 3 -12 -10
-11 -15 -9 -27 7 -13 17 -16 18 -24 5 -8 -11 -4 -17 15 -24 14 -6 25 -16 25
-23 0 -15 -37 -36 -49 -28 -5 3 -12 -1 -14 -7 -3 -7 -6 -4 -6 7 -1 17 -3 18
-12 5 -8 -12 -9 -10 -4 7 3 12 1 24 -5 28 -6 3 -7 11 -4 17 4 6 9 5 15 -3 4
-7 11 -10 15 -7 3 4 -1 14 -9 22 -10 11 -17 12 -19 4 -2 -6 -14 -13 -27 -15
-13 -2 -20 1 -16 7 10 15 -28 56 -47 52 -10 -2 -18 2 -19 10 -1 23 -53 54
-114 67 -33 7 -67 16 -75 19 -8 3 -23 4 -32 3 -10 -1 -18 2 -18 6 0 5 33 16
73 24 l72 14 3 121 3 120 -158 22 c-185 25 -700 105 -823 127 -47 8 -88 15
-92 15 -5 0 -8 -42 -8 -94 l0 -94 63 -15 62 -15 -47 -1 c-26 0 -50 -6 -53 -11
-4 -6 -10 -8 -15 -5 -4 3 -13 -2 -20 -10 -6 -7 -19 -11 -27 -8 -11 4 -14 2 -9
-5 4 -7 1 -12 -8 -12 -20 0 -103 -104 -112 -140 0 -3 -3 -12 -6 -20 -12 -31
-16 -60 -8 -60 5 0 5 -12 1 -27 -9 -31 -8 -89 2 -99 3 -3 2 -16 -3 -28 -5 -13
-4 -29 1 -37 5 -8 9 -29 9 -47 0 -18 5 -41 10 -52 6 -11 15 -29 20 -40 8 -15
7 -20 -2 -20 -7 0 -5 -5 5 -11 9 -6 15 -14 12 -20 -4 -5 -1 -9 5 -9 7 0 9 -7
6 -16 -4 -11 -2 -15 8 -11 10 4 13 1 9 -9 -3 -7 -13 -14 -22 -14 -14 0 -14 -2
-1 -10 12 -7 12 -12 3 -21 -10 -10 -27 -7 -80 14 -106 42 -97 21 -96 231 1
102 5 190 9 197 4 8 3 9 -4 5 -13 -8 -17 6 -5 17 3 4 8 76 9 159 2 84 4 160 4
168 1 15 1 88 2 293 0 60 4 107 9 107 6 0 5 8 -1 19 -6 12 -6 22 -1 26 6 3 6
17 1 35 -5 18 -5 30 0 30 6 0 6 10 0 25 -6 17 -6 25 1 25 6 0 7 4 4 10 -3 5
-1 18 5 29 6 12 6 22 1 26 -5 3 -7 22 -5 43 10 75 10 103 2 108 -5 3 -6 10 -2
15 3 5 7 45 9 89 1 43 6 83 10 89 3 6 -2 11 -12 12 -10 0 -13 3 -5 6 6 2 12
17 12 31 0 15 4 34 10 42 5 9 5 19 -1 27 -6 6 -8 21 -4 33 4 12 2 20 -5 20 -6
0 -8 5 -5 10 4 6 11 8 16 5 5 -4 5 5 -1 20 -13 34 -13 38 2 29 8 -5 9 -2 5 9
-3 9 -2 19 3 22 6 4 10 11 10 16 0 6 -4 8 -9 5 -5 -4 -7 3 -4 14 3 11 9 20 14
20 5 0 9 4 9 10 0 5 -6 7 -14 4 -16 -6 -17 27 -2 38 6 4 6 16 -1 31 -10 22 -9
24 13 19 30 -5 31 5 2 31 l-23 20 25 -6 25 -6 -22 16 c-22 15 -21 49 1 36 6
-4 3 5 -6 20 -10 14 -18 30 -18 34 0 4 4 3 8 -4 6 -9 11 -7 20 7 7 11 8 20 3
20 -14 0 -7 90 8 100 11 6 11 15 3 39 -6 18 -8 30 -4 27 5 -3 14 -1 22 5 12 7
11 9 -5 9 -17 1 -18 2 -5 13 15 12 26 57 13 57 -3 0 -11 -7 -17 -15 -9 -13
-11 -10 -11 14 -1 25 2 28 17 20 10 -6 24 -6 31 -2 6 4 21 9 32 10 11 2 25 9
30 16 16 19 34 18 32 -3 -1 -14 -4 -16 -14 -8 -10 8 -13 6 -13 -6 0 -10 -4
-14 -10 -11 -5 3 -10 1 -10 -5 0 -6 -4 -9 -8 -6 -4 2 -14 0 -22 -6 -12 -8 -12
-9 3 -4 9 3 17 1 17 -4 0 -6 -4 -10 -9 -10 -5 0 -11 -7 -15 -15 -4 -12 -2 -13
14 -2 11 6 20 17 20 24 0 7 9 13 20 13 18 0 25 -10 21 -32 0 -5 4 -8 9 -8 6 0
10 5 10 10 0 6 5 10 11 10 5 0 7 -4 4 -10 -3 -5 -1 -10 4 -10 6 0 11 5 11 10
0 6 7 10 15 10 8 0 14 -6 13 -12 -2 -7 4 -13 12 -13 9 0 15 9 14 23 -1 12 3
22 7 22 5 0 9 -7 9 -15 0 -8 5 -15 10 -15 18 0 25 -4 42 -24 15 -18 17 -18 18
-4 0 9 -11 25 -25 35 -14 10 -26 27 -26 38 1 45 5 53 19 47 10 -3 13 -1 8 6
-6 9 -1 9 18 1 14 -7 27 -18 30 -25z m-277 20 c-3 -3 -12 -4 -19 -1 -8 3 -5 6
6 6 11 1 17 -2 13 -5z m631 -22 c14 -19 16 -71 2 -106 -7 -20 -17 -26 -39 -26
l-29 0 -4 76 c-2 42 -2 77 0 78 8 8 59 -8 70 -22z m132 -7 c0 -17 -16 -20 -25
-5 -9 15 -25 12 -25 -5 0 -8 11 -22 24 -30 33 -22 39 -52 15 -76 -15 -15 -24
-17 -39 -9 -11 6 -20 17 -20 25 0 18 12 19 27 4 7 -7 13 -8 17 0 4 6 -2 19
-13 30 -38 38 -43 59 -21 81 16 16 25 18 40 10 11 -6 20 -17 20 -25z m828 -48
c3 -47 0 -57 -19 -71 -16 -11 -27 -12 -41 -5 -26 14 -27 133 0 148 33 19 57
-10 60 -72z m170 49 c-14 -10 -18 -28 -18 -75 0 -46 -3 -62 -12 -59 -8 3 -14
29 -16 69 -2 47 -7 66 -20 74 -14 8 -10 11 23 15 47 7 68 -5 43 -24z m-1808
12 c0 -4 -4 -8 -9 -8 -6 0 -12 4 -15 8 -3 5 1 9 9 9 8 0 15 -4 15 -9z m80 8
c0 -3 -4 -8 -10 -11 -5 -3 -10 -1 -10 4 0 6 5 11 10 11 6 0 10 -2 10 -4z m340
-6 c0 -5 -7 -10 -15 -10 -12 0 -15 -14 -15 -65 0 -51 -3 -65 -15 -65 -12 0
-15 14 -15 65 0 51 -3 65 -15 65 -8 0 -15 5 -15 10 0 6 20 10 45 10 25 0 45
-4 45 -10z m74 -6 c3 -9 6 -35 6 -59 0 -58 -8 -75 -34 -75 -32 0 -46 19 -46
65 0 67 9 85 40 85 16 0 30 -7 34 -16z m91 -59 c0 -67 -1 -70 -24 -73 -45 -7
-66 58 -41 123 8 21 16 26 38 23 27 -3 27 -4 27 -73z m315 66 c0 -5 -7 -11
-15 -15 -11 -4 -15 -21 -15 -66 0 -33 -4 -60 -10 -60 -6 0 -10 29 -10 66 0 55
-3 65 -15 60 -9 -3 -15 0 -15 9 0 11 11 15 40 15 22 0 40 -4 40 -9z m40 -66
c0 -60 -3 -75 -15 -75 -12 0 -15 15 -15 75 0 60 3 75 15 75 12 0 15 -15 15
-75z m50 9 c0 -61 1 -65 20 -59 14 5 20 2 20 -9 0 -12 -10 -16 -35 -16 l-35 0
0 75 c0 60 3 75 15 75 12 0 15 -14 15 -66z m80 1 c0 -56 3 -65 16 -63 10 2 19
-3 21 -9 3 -9 -7 -13 -31 -13 l-36 0 0 75 c0 60 3 75 15 75 12 0 15 -14 15
-65z m133 28 l15 -38 1 38 c1 20 6 37 11 37 6 0 10 -32 10 -75 0 -87 -18 -102
-41 -32 l-14 42 -3 -42 c-5 -72 -22 -48 -22 32 0 86 17 101 43 38z m125 25 c7
-7 12 -35 12 -63 0 -28 -5 -56 -12 -63 -17 -17 -55 -15 -62 4 -8 21 -8 119 1
127 11 11 48 8 61 -5z m102 2 c0 -5 -7 -10 -15 -10 -12 0 -15 -14 -15 -65 0
-37 -4 -65 -10 -65 -6 0 -10 28 -10 65 0 51 -3 65 -15 65 -8 0 -15 5 -15 10 0
6 18 10 40 10 22 0 40 -4 40 -10z m72 -51 c-4 -54 -2 -61 17 -66 31 -8 25 -23
-9 -23 l-30 0 0 75 c0 53 4 75 13 75 9 0 11 -17 9 -61z m222 45 c9 -22 0 -30
-18 -15 -27 23 -31 -10 -4 -34 35 -30 40 -50 19 -77 -16 -20 -22 -21 -45 -10
-14 6 -26 18 -26 27 0 18 27 20 32 3 2 -6 10 -8 16 -4 9 5 4 17 -18 42 -16 19
-30 40 -30 47 0 35 62 52 74 21z m-1507 -20 c-3 -3 -12 -4 -19 -1 -8 3 -5 6 6
6 11 1 17 -2 13 -5z m-43 -10 c15 -6 15 -8 -1 -19 -13 -10 -21 -10 -35 -1 -17
10 -17 11 0 18 9 3 18 7 19 7 1 1 9 -2 17 -5z m1678 -100 c-2 -10 -10 -26 -18
-34 -12 -12 -14 -10 -14 16 0 17 3 34 7 38 12 12 28 -1 25 -20z m-1376 -46 c4
-6 0 -17 -10 -23 -13 -10 -15 -23 -10 -69 6 -48 4 -56 -10 -56 -13 0 -16 11
-16 60 0 47 -3 60 -15 60 -27 0 -16 29 13 33 15 2 30 5 34 6 4 0 10 -4 14 -11z
m1402 0 c15 -15 16 -48 2 -48 -6 0 -13 7 -17 16 -5 13 -7 13 -14 2 -16 -24 -9
-37 18 -35 22 2 29 -3 31 -21 4 -27 -22 -72 -43 -72 -24 0 -45 42 -45 92 0 37
5 50 22 62 27 19 31 19 46 4z m-1491 -13 c8 -22 -4 -30 -21 -16 -27 23 -29
-10 -2 -38 14 -15 26 -37 26 -49 0 -40 -60 -52 -74 -15 -9 23 2 29 24 15 32
-19 31 3 0 33 -32 31 -37 54 -18 73 17 17 58 15 65 -3z m209 3 c5 -7 9 -43 10
-80 1 -61 -1 -68 -18 -68 -46 0 -58 17 -58 84 0 34 3 66 7 69 11 12 51 8 59
-5z m54 -59 c0 -33 4 -59 10 -59 6 0 10 28 10 65 0 51 3 65 15 65 12 0 15 -13
15 -59 0 -77 -6 -91 -40 -91 -16 0 -30 7 -34 16 -8 21 -8 119 0 127 15 15 24
-8 24 -64z m90 -4 c0 -43 -4 -75 -10 -75 -6 0 -10 32 -10 75 0 43 4 75 10 75
6 0 10 -32 10 -75z m180 66 c0 -5 -7 -11 -15 -15 -11 -4 -15 -21 -15 -66 0
-47 -3 -60 -15 -60 -12 0 -15 14 -15 63 l0 63 -35 2 c-29 2 -35 -1 -35 -18 0
-11 6 -20 14 -20 24 0 30 -21 7 -27 -28 -7 -28 -43 -1 -43 11 0 20 -4 20 -10
0 -5 -16 -10 -35 -10 l-35 0 0 75 0 75 80 0 c44 0 80 -4 80 -9z m40 -56 c0
-59 2 -65 21 -65 11 0 17 -4 14 -10 -3 -5 -19 -10 -36 -10 l-29 0 0 75 c0 60
3 75 15 75 12 0 15 -14 15 -65z m57 45 c3 -11 9 -20 13 -20 4 0 10 9 13 20 6
23 27 27 27 6 0 -7 -7 -30 -15 -49 -8 -20 -15 -48 -15 -63 0 -40 -24 -24 -31
22 -4 21 -10 54 -14 72 -8 36 13 48 22 12z m171 -7 c4 -27 -6 -30 -23 -6 -8
11 -14 12 -19 5 -3 -6 7 -25 24 -42 31 -32 34 -38 24 -64 -9 -24 -61 -21 -74
4 -8 15 -8 20 3 20 7 0 18 -5 24 -11 8 -8 13 -8 17 0 4 6 -4 22 -18 35 -26 24
-31 41 -20 71 10 25 58 16 62 -12z m82 12 c0 -9 -7 -15 -17 -13 -10 2 -19 -4
-21 -14 -2 -11 3 -18 12 -18 9 0 16 -7 16 -16 0 -8 -4 -13 -9 -9 -5 3 -12 1
-15 -4 -9 -14 4 -41 20 -41 8 0 14 -4 14 -10 0 -5 -13 -10 -30 -10 l-30 0 0
75 0 75 30 0 c20 0 30 -5 30 -15z m88 -58 c14 -71 10 -95 -12 -64 -16 21 -36
22 -36 2 0 -8 -6 -15 -14 -15 -11 0 -11 13 2 75 12 60 18 75 31 73 11 -2 20
-24 29 -71z m99 -4 c3 -74 -10 -98 -22 -43 -4 17 -11 30 -16 30 -5 0 -9 -13
-9 -30 0 -20 -5 -30 -15 -30 -12 0 -15 15 -15 76 l0 75 38 -3 37 -3 2 -72z
m93 58 c13 -26 13 -31 -5 -31 -8 0 -15 7 -15 16 0 9 -6 14 -12 12 -16 -5 -22
-50 -13 -87 6 -24 8 -25 19 -8 7 9 18 17 25 17 14 0 14 -6 1 -31 -12 -21 -40
-25 -58 -7 -12 12 -16 95 -6 122 9 22 51 20 64 -3z m50 -12 c0 -20 4 -29 12
-27 7 3 13 15 13 28 0 13 6 25 13 27 9 4 12 -15 12 -71 0 -61 -3 -76 -15 -76
-10 0 -15 11 -15 35 0 19 -4 35 -10 35 -5 0 -10 -16 -10 -35 0 -24 -5 -35 -15
-35 -12 0 -15 15 -15 75 0 60 3 75 15 75 10 0 15 -10 15 -31z m98 -46 c-2 -44
-7 -78 -13 -78 -6 0 -11 34 -13 78 -2 65 0 77 13 77 13 0 15 -12 13 -77z m57
45 l14 -33 1 33 c0 22 5 32 15 32 12 0 15 -15 15 -75 0 -68 -2 -75 -20 -75
-14 0 -20 7 -20 23 0 12 -5 29 -10 37 -7 11 -10 5 -10 -22 0 -21 -4 -38 -10
-38 -6 0 -10 32 -10 75 0 82 12 96 35 43z m-1365 -173 c7 -9 10 -27 7 -44 -4
-16 -2 -43 3 -60 7 -25 6 -31 -6 -31 -8 0 -16 6 -18 13 -15 49 -19 52 -25 19
-11 -60 -26 -39 -29 41 l-3 77 29 0 c16 0 35 -7 42 -15z m124 -1 c9 -8 13 -20
10 -26 -4 -6 -10 -6 -17 1 -6 6 -15 11 -19 11 -17 0 -7 -23 18 -42 18 -14 24
-28 22 -47 -2 -21 -9 -27 -35 -29 -29 -3 -33 0 -33 19 0 18 3 20 12 11 7 -7
16 -12 20 -12 15 0 8 22 -17 52 -29 35 -30 41 -9 62 19 20 29 20 48 0z m94 4
c12 -12 16 -95 6 -122 -7 -19 -45 -21 -62 -4 -18 18 -15 103 4 122 19 19 36
20 52 4z m68 -15 c11 -46 19 -50 24 -13 3 23 11 36 23 38 15 3 17 -6 17 -72 0
-44 -4 -76 -10 -76 -5 0 -10 15 -11 33 l-1 32 -10 -32 c-14 -43 -24 -42 -36 5
l-10 37 -1 -37 c-1 -21 -5 -38 -11 -38 -6 0 -10 32 -10 75 0 60 3 75 15 75 8
0 18 -12 21 -27z m239 17 c3 -6 -1 -13 -9 -16 -12 -5 -16 -21 -16 -65 0 -46
-3 -59 -15 -59 -12 0 -15 13 -15 59 0 61 -9 73 -52 63 -22 -4 -24 -42 -3 -42
8 0 15 -4 15 -10 0 -5 -7 -10 -15 -10 -8 0 -15 -9 -15 -20 0 -13 7 -20 20 -20
11 0 20 -4 20 -10 0 -5 -16 -10 -35 -10 l-35 0 0 75 0 75 74 0 c41 0 78 -5 81
-10z m40 -25 c0 -16 6 -30 13 -32 8 -3 12 7 12 31 0 25 4 36 15 36 12 0 15
-15 15 -75 0 -60 -3 -75 -15 -75 -10 0 -15 10 -15 30 0 18 -5 30 -13 30 -9 0
-13 -11 -12 -30 1 -19 -3 -30 -12 -30 -10 0 -13 19 -13 76 0 56 3 75 13 71 6
-2 12 -17 12 -32z m101 -43 c3 -59 1 -72 -11 -72 -12 0 -15 15 -15 76 0 100
21 97 26 -4z m57 41 l15 -38 1 38 c1 36 13 48 26 27 9 -15 -5 -140 -16 -140
-5 0 -15 15 -23 33 l-14 32 -1 -32 c-1 -22 -6 -33 -16 -33 -12 0 -15 15 -15
75 0 86 17 101 43 38z m135 15 c2 -11 -3 -18 -12 -18 -9 0 -16 5 -16 11 0 5
-4 7 -10 4 -13 -8 -13 -92 -1 -100 15 -8 24 14 12 29 -12 14 -5 26 16 26 10 0
13 -11 11 -37 -3 -34 -6 -38 -32 -41 -16 -2 -32 2 -37 10 -12 19 -11 96 2 119
13 25 62 23 67 -3z m98 -20 l7 -43 12 40 c7 23 19 41 28 43 15 3 17 -7 17 -72
0 -61 -3 -76 -15 -76 -12 0 -14 9 -10 43 4 31 3 37 -4 22 -5 -11 -10 -30 -10
-43 -1 -35 -25 -21 -32 19 l-6 34 -2 -37 c-1 -27 -6 -38 -16 -38 -12 0 -15 14
-15 68 0 38 3 72 7 75 17 17 32 3 39 -35z m154 16 c25 -64 4 -129 -41 -122
-22 3 -24 8 -27 61 -2 35 2 64 9 73 18 22 48 17 59 -12z m88 14 c5 -7 10 -41
10 -75 1 -49 -2 -63 -14 -63 -8 0 -14 10 -14 24 0 14 -4 28 -10 31 -6 4 -10
-7 -10 -24 0 -21 -5 -31 -15 -31 -12 0 -15 14 -15 68 0 38 3 72 7 75 11 12 50
8 61 -5z m92 1 c0 -6 -9 -13 -20 -16 -11 -3 -20 -12 -20 -19 0 -8 9 -14 20
-14 11 0 20 -4 20 -9 0 -5 -9 -11 -20 -14 -31 -8 -27 -47 5 -47 14 0 25 -4 25
-10 0 -5 -16 -10 -35 -10 l-35 0 0 75 0 75 30 0 c17 0 30 -5 30 -11z m90 -4
c0 -6 -7 -20 -15 -31 -13 -17 -14 -17 -15 -1 0 19 -20 24 -20 5 0 -7 -5 -5
-11 5 -5 9 -8 21 -4 26 8 14 65 10 65 -4z m-4335 -85 c3 -5 -3 -10 -14 -10
-12 0 -21 5 -21 10 0 6 6 10 14 10 8 0 18 -4 21 -10z m-2780 -130 c3 -5 1 -10
-4 -10 -6 0 -11 5 -11 10 0 6 2 10 4 10 3 0 8 -4 11 -10z m-5 -34 c0 -3 -4 -8
-10 -11 -5 -3 -10 -1 -10 4 0 6 5 11 10 11 6 0 10 -2 10 -4z m742 -45 c-1 -7
2 -10 7 -6 15 9 46 -26 49 -56 3 -25 1 -26 -30 -20 -18 4 -33 12 -33 19 0 7
-6 16 -13 21 -7 4 -10 15 -6 24 3 10 1 17 -5 17 -6 0 -11 4 -11 8 0 5 10 8 23
7 12 -2 21 -8 19 -14z m-712 -7 c0 -2 -9 -4 -20 -4 -11 0 -20 4 -20 9 0 5 9 7
20 4 11 -3 20 -7 20 -9z m2280 -15 c0 -16 -5 -20 -19 -16 -10 2 -26 0 -36 -5
-14 -8 -16 -6 -13 8 2 14 11 18 31 16 15 -2 27 1 27 7 0 6 2 11 5 11 3 0 5
-10 5 -21z m-2315 -10 c11 -17 -1 -21 -15 -4 -8 9 -8 15 -2 15 6 0 14 -5 17
-11z m3943 -23 c-7 -8 -15 -12 -17 -11 -5 6 10 25 20 25 5 0 4 -6 -3 -14z
m-3932 -31 c1 -14 -2 -25 -8 -25 -5 0 -6 5 -3 10 3 6 -1 10 -9 10 -10 0 -13 6
-10 15 10 24 29 17 30 -10z m-56 5 c0 -5 -8 -10 -17 -10 -15 0 -16 2 -3 10 19
12 20 12 20 0z m71 -47 c-12 -20 -14 -14 -5 12 4 9 9 14 11 11 3 -2 0 -13 -6
-23z m-21 -3 c0 -5 -7 -7 -15 -4 -8 4 -15 1 -15 -7 0 -7 -3 -10 -6 -6 -9 9 5
27 22 27 8 0 14 -4 14 -10z m-57 -50 c-10 -11 -22 -20 -28 -20 -5 0 -3 5 5 10
8 5 11 10 5 10 -5 0 -3 5 5 10 25 16 31 11 13 -10z m4 -55 c0 -11 -4 -12 -14
-4 -7 6 -13 15 -13 20 0 5 6 6 13 3 8 -3 14 -11 14 -19z m-77 -125 c0 -5 -4
-10 -10 -10 -5 0 -10 5 -10 10 0 6 5 10 10 10 6 0 10 -4 10 -10z m-80 -241 c0
-5 -9 -9 -20 -9 -11 0 -20 4 -20 8 0 4 9 8 20 9 11 1 20 -2 20 -8z m-20 -140
c0 -6 -4 -7 -10 -4 -5 3 -10 1 -10 -6 0 -7 -3 -10 -6 -6 -10 10 5 39 16 32 5
-3 10 -11 10 -16z m3630 -10 c0 4 7 8 15 8 22 0 19 -54 -3 -66 -13 -7 -23 -6
-30 1 -9 9 -12 5 -13 -17 0 -25 -2 -27 -8 -10 -8 19 -8 19 -19 0 -9 -17 -11
-11 -12 36 l0 57 35 -8 c19 -4 35 -5 35 -1z m-3660 -19 c8 -5 11 -10 5 -10 -5
0 -17 5 -25 10 -8 5 -10 10 -5 10 6 0 17 -5 25 -10z m6518 -17 c-16 -2 -40 -2
-55 0 -16 2 -3 4 27 4 30 0 43 -2 28 -4z m-6503 -83 c-3 -5 -10 -10 -16 -10
-5 0 -9 5 -9 10 0 6 7 10 16 10 8 0 12 -4 9 -10z m6955 -10 c0 -5 -2 -10 -4
-10 -3 0 -8 5 -11 10 -3 6 -1 10 4 10 6 0 11 -4 11 -10z m74 -69 c3 -5 -1 -11
-9 -14 -9 -4 -12 -1 -8 9 6 16 10 17 17 5z m-4101 -108 c149 -140 227 -218
232 -233 5 -16 69 -54 92 -55 7 0 12 -4 12 -9 -1 -13 23 -26 48 -26 12 0 28
-7 37 -15 8 -8 22 -15 30 -15 9 0 16 -5 16 -12 0 -6 3 -8 7 -5 3 4 17 -5 30
-19 14 -15 30 -23 39 -20 12 5 14 1 10 -17 -3 -12 -3 -16 0 -9 8 16 24 15 24
-2 0 -7 10 -16 23 -20 15 -4 18 -8 10 -14 -8 -5 -3 -12 16 -20 15 -7 28 -19
28 -27 0 -19 -5 -19 -24 0 -8 9 -18 13 -22 9 -3 -4 0 -9 7 -11 9 -4 10 -8 2
-18 -8 -10 -8 -15 1 -21 8 -4 9 -3 5 4 -12 20 6 13 25 -9 16 -18 16 -23 4 -35
-7 -8 -20 -14 -27 -14 -10 0 -9 -3 2 -10 9 -6 10 -10 3 -10 -9 0 -8 -9 3 -35
8 -19 11 -35 8 -35 -4 0 -1 -6 5 -13 6 -8 8 -17 4 -20 -3 -4 -1 -7 5 -7 6 0 9
-7 6 -15 -4 -11 -2 -13 9 -10 11 5 13 0 10 -19 -4 -19 0 -25 17 -28 20 -3 18
-7 -24 -50 -25 -27 -52 -48 -59 -48 -6 0 -3 -7 7 -15 11 -8 15 -15 8 -15 -7 0
-9 -7 -5 -17 5 -12 2 -15 -10 -10 -11 4 -17 1 -17 -9 0 -8 4 -13 8 -10 5 3 16
-4 25 -14 15 -18 15 -20 -1 -29 -16 -10 -16 -10 1 -11 31 0 18 -19 -18 -26
-25 -4 -35 -11 -33 -23 2 -12 -4 -16 -27 -14 -16 0 -25 -1 -18 -4 7 -2 10 -10
7 -18 -3 -7 0 -15 8 -18 7 -2 2 -2 -11 0 -21 4 -23 2 -12 -10 8 -10 9 -17 1
-22 -13 -8 -13 -58 1 -72 18 -18 -98 6 -182 38 -95 37 -121 57 -121 92 0 15
-4 27 -9 27 -5 0 -9 6 -9 14 0 7 -13 38 -29 68 -17 31 -27 58 -24 62 4 3 1 6
-5 6 -7 0 -12 9 -12 19 0 11 -4 21 -9 23 -16 5 -91 206 -117 312 -17 71 -29
164 -40 316 -8 118 -18 239 -23 268 -4 28 -6 52 -3 52 2 0 27 -21 55 -47z
m4177 -18 c-7 -8 -17 -15 -23 -15 -6 0 -2 7 9 15 25 19 30 19 14 0z m-45 -5
c3 -5 1 -10 -4 -10 -6 0 -11 5 -11 10 0 6 2 10 4 10 3 0 8 -4 11 -10z m-785
-190 c85 -11 171 -20 190 -21 61 -1 5 -15 -115 -29 l-110 -13 -49 32 c-28 17
-56 31 -62 31 -7 0 -16 5 -19 10 -8 13 -16 13 165 -10z m907 -40 c1 -16 -1
-17 -12 -7 -11 10 -8 19 10 27 1 0 1 -9 2 -20z m-7232 -40 c3 -5 1 -10 -4 -10
-6 0 -11 5 -11 10 0 6 2 10 4 10 3 0 8 -4 11 -10z m7248 3 c-15 -3 -23 -12
-23 -26 -1 -21 -1 -21 -11 -3 -13 21 3 36 36 34 17 -1 17 -1 -2 -5z m-57 -38
c15 -15 11 -35 -7 -35 -6 0 -8 4 -4 9 3 5 1 12 -5 16 -11 7 -14 25 -4 25 3 0
12 -7 20 -15z m99 -85 c3 -5 1 -10 -4 -10 -6 0 -11 5 -11 10 0 6 2 10 4 10 3
0 8 -4 11 -10z m-7290 -39 c3 -5 1 -12 -4 -15 -5 -3 -11 1 -15 9 -6 16 9 21
19 6z m7040 -89 c-3 -3 -11 0 -18 7 -9 10 -8 11 6 5 10 -3 15 -9 12 -12z m205
-2 c0 -5 -5 -10 -11 -10 -5 0 -7 5 -4 10 3 6 8 10 11 10 2 0 4 -4 4 -10z
m-160 -40 c0 -5 -4 -10 -10 -10 -5 0 -10 5 -10 10 0 6 5 10 10 10 6 0 10 -4
10 -10z m160 0 c0 -5 -5 -10 -11 -10 -5 0 -7 5 -4 10 3 6 8 10 11 10 2 0 4 -4
4 -10z m-7240 -70 c0 -5 -5 -10 -11 -10 -5 0 -7 5 -4 10 3 6 8 10 11 10 2 0 4
-4 4 -10z m1519 -91 c20 -20 38 -43 40 -50 2 -8 13 -48 23 -89 11 -41 23 -77
27 -80 4 -3 10 -12 14 -22 4 -12 -6 -21 -41 -36 -79 -33 -86 -34 -144 -8 -69
31 -80 55 -63 141 7 33 11 63 9 67 -3 4 0 9 6 13 6 4 8 11 4 16 -3 5 2 21 10
34 9 14 13 25 9 25 -5 1 3 7 17 15 14 8 21 15 15 15 -5 1 -1 5 10 9 12 5 22 4
24 -3 2 -6 20 -27 40 -47z m-864 -125 c12 -5 13 -9 5 -14 -10 -6 -9 -13 2 -29
8 -11 17 -18 20 -15 3 3 9 1 12 -4 8 -13 -58 -44 -78 -36 -9 3 -16 2 -16 -4 0
-7 -10 -7 -29 1 -30 11 -32 37 -4 37 9 0 13 6 9 15 -5 15 5 19 33 15 9 -1 12
5 8 19 -5 22 7 27 38 15z m55 -275 c29 -9 36 -15 33 -30 -3 -11 -12 -19 -21
-19 -8 0 -23 -7 -32 -15 -9 -8 -37 -21 -62 -29 -41 -12 -52 -12 -97 4 -28 9
-53 15 -56 12 -3 -3 -5 4 -5 15 0 51 149 89 240 62z m3253 -11 c7 -7 13 -28
14 -47 0 -18 6 -37 13 -41 7 -4 -9 -12 -37 -20 -56 -14 -249 -25 -218 -11 11
4 26 6 33 4 8 -4 10 0 5 13 -4 11 -3 15 5 10 11 -7 48 20 86 63 34 38 78 51
99 29z m-3298 -795 c5 -21 8 -24 16 -12 7 11 9 11 9 -4 0 -22 -19 -30 -75 -31
-56 0 -63 7 -34 37 21 22 37 30 70 36 4 0 10 -11 14 -26z m7232 -60 c-3 -5 27
-7 65 -7 58 1 75 -2 94 -19 34 -29 28 -95 -11 -131 -32 -29 -40 -32 -32 -12 4
11 -3 14 -33 12 -29 -2 -45 3 -64 21 -14 13 -26 28 -26 33 0 5 -6 7 -14 4 -11
-4 -13 0 -9 15 3 11 10 18 16 14 6 -3 7 -1 3 5 -4 7 -13 12 -21 12 -15 0 -8
40 9 52 14 10 28 10 23 1z m-7256 -181 c-6 -2 -11 -8 -11 -13 0 -6 5 -7 11 -3
7 4 10 1 7 -7 -2 -8 -17 -15 -31 -17 -15 -2 -27 -8 -27 -13 0 -5 -11 -9 -25
-9 -14 0 -25 5 -25 11 0 7 -9 9 -24 5 -20 -5 -23 -3 -19 14 3 11 9 17 14 14 5
-3 17 1 28 8 10 7 39 13 65 13 26 0 43 -1 37 -3z m-708 -77 c61 0 90 -4 96
-13 4 -7 12 -12 17 -11 30 5 41 -2 36 -26 -3 -20 0 -25 17 -25 11 0 21 -4 21
-9 0 -5 9 -13 21 -16 12 -4 18 -12 15 -21 -3 -8 -1 -14 5 -14 6 0 -3 -12 -20
-26 -17 -14 -31 -34 -31 -43 0 -10 -3 -21 -7 -25 -5 -4 -8 -11 -8 -14 0 -4
-10 -21 -22 -38 -29 -41 -89 -58 -240 -68 -47 -3 -67 13 -86 68 -5 17 -15 34
-20 37 -18 12 3 59 31 71 15 7 41 21 57 33 l30 20 -73 5 -73 5 20 21 c11 12
17 25 14 28 -4 3 1 6 10 6 10 0 17 8 17 20 0 11 5 20 11 20 5 0 8 4 4 9 -6 10
56 20 65 11 3 -3 45 -5 93 -5z m7603 -1053 c12 -6 24 -9 26 -6 3 3 8 -2 11
-11 4 -8 2 -15 -3 -15 -6 0 -10 -7 -10 -16 0 -10 -6 -14 -14 -11 -8 3 -33 11
-55 17 -23 6 -41 15 -41 20 0 4 -2 15 -5 22 -7 18 59 18 91 0z m103 -3028 c27
-63 90 -123 156 -151 25 -10 45 -20 45 -23 0 -3 -25 -16 -56 -29 -66 -29 -127
-94 -151 -163 -10 -26 -20 -48 -24 -48 -3 0 -11 18 -18 39 -20 68 -82 136
-158 172 l-67 32 54 20 c66 25 139 94 165 159 11 27 22 48 25 48 3 0 16 -25
29 -56z m-4494 -134 c3 -6 -1 -7 -9 -4 -18 7 -21 14 -7 14 6 0 13 -4 16 -10z"/>
<path d="M2810 9730 c0 -11 7 -20 15 -20 17 0 18 2 9 24 -9 23 -24 20 -24 -4z"/>
<path d="M2703 9662 c-13 -2 -23 -10 -23 -19 0 -12 3 -13 14 -4 10 8 16 9 21
1 3 -5 -1 -10 -9 -10 -11 0 -15 -10 -14 -35 1 -31 4 -35 27 -34 15 1 19 3 9 6
-34 9 -33 53 2 53 14 0 30 18 30 35 0 6 -36 11 -57 7z m35 -27 c-3 -3 -9 2
-12 12 -6 14 -5 15 5 6 7 -7 10 -15 7 -18z"/>
<path d="M2631 9646 c-23 -13 -23 -13 -2 -19 13 -3 19 -1 15 5 -4 6 -1 8 7 6
8 -3 13 -13 11 -23 -2 -10 1 -14 7 -10 14 8 14 18 -1 38 -11 14 -16 14 -37 3z"/>
<path d="M2555 9620 c3 -5 1 -10 -4 -10 -6 0 -11 -4 -11 -8 0 -5 7 -9 15 -9 8
0 15 9 15 19 0 10 -5 18 -11 18 -5 0 -7 -4 -4 -10z"/>
<path d="M2590 9605 c0 -9 -7 -18 -15 -21 -24 -9 -18 -20 13 -21 15 -1 21 1
15 4 -7 2 -13 9 -13 14 0 6 5 7 10 4 6 -3 10 3 10 14 0 12 -4 21 -10 21 -5 0
-10 -7 -10 -15z"/>
<path d="M2752 9604 c-14 -16 -16 -28 -3 -19 5 3 12 1 16 -5 9 -14 22 -12 22
3 0 23 -21 35 -35 21z"/>
<path d="M2637 9603 c-4 -3 -7 -13 -7 -22 1 -13 3 -13 11 2 11 19 8 33 -4 20z"/>
<path d="M2440 9590 c-8 -5 -11 -12 -7 -16 4 -4 13 -2 19 4 15 15 7 24 -12 12z"/>
<path d="M2655 9580 c-3 -5 -1 -10 4 -10 6 0 11 5 11 10 0 6 -2 10 -4 10 -3 0
-8 -4 -11 -10z"/>
<path d="M2360 9539 c0 -5 -4 -7 -10 -4 -5 3 -10 1 -10 -4 0 -6 7 -11 15 -11
8 0 15 7 15 15 0 8 -2 15 -5 15 -3 0 -5 -5 -5 -11z"/>
<path d="M2610 9540 c0 -5 5 -10 10 -10 6 0 10 5 10 10 0 6 -4 10 -10 10 -5 0
-10 -4 -10 -10z"/>
<path d="M2715 9540 c-3 -5 -1 -10 4 -10 6 0 11 5 11 10 0 6 -2 10 -4 10 -3 0
-8 -4 -11 -10z"/>
<path d="M2440 9523 c0 -12 3 -14 8 -6 5 8 12 8 26 -2 10 -8 15 -18 11 -24 -3
-7 0 -8 9 -5 20 8 20 12 1 30 -8 9 -15 12 -15 8 0 -5 -5 -3 -12 4 -17 17 -28
15 -28 -5z"/>
<path d="M2571 9514 c0 -11 3 -14 6 -6 3 7 2 16 -1 19 -3 4 -6 -2 -5 -13z"/>
<path d="M2670 9510 c18 -12 30 -13 30 -2 0 4 -10 9 -22 9 -18 2 -20 0 -8 -7z"/>
<path d="M2260 9499 c0 -4 11 -9 25 -11 15 -3 25 -1 25 6 0 6 -11 11 -25 11
-14 0 -25 -3 -25 -6z"/>
<path d="M2390 9491 c0 -6 4 -13 10 -16 6 -3 7 1 4 9 -7 18 -14 21 -14 7z"/>
<path d="M2666 9478 c3 -4 9 -8 15 -8 5 0 9 4 9 8 0 5 -7 9 -15 9 -8 0 -12 -4
-9 -9z"/>
<path d="M2615 9460 c-3 -5 -1 -10 4 -10 6 0 11 5 11 10 0 6 -2 10 -4 10 -3 0
-8 -4 -11 -10z"/>
<path d="M2040 9363 c0 -10 4 -14 8 -8 4 6 11 13 16 18 5 4 2 7 -7 7 -10 0
-17 -8 -17 -17z"/>
<path d="M1915 9329 c-9 -14 4 -27 13 -13 4 6 14 14 22 17 10 4 8 6 -7 6 -12
1 -25 -4 -28 -10z"/>
<path d="M2010 9329 c0 -5 5 -7 10 -4 6 3 10 8 10 11 0 2 -4 4 -10 4 -5 0 -10
-5 -10 -11z"/>
<path d="M1950 9302 c0 -5 7 -9 15 -9 8 0 15 4 15 9 0 4 -7 8 -15 8 -8 0 -15
-4 -15 -8z"/>
<path d="M1920 9276 c0 -2 7 -9 15 -16 9 -7 15 -8 15 -2 0 5 -7 12 -15 16 -8
3 -15 4 -15 2z"/>
<path d="M1825 9260 c3 -5 8 -10 11 -10 2 0 4 5 4 10 0 6 -5 10 -11 10 -5 0
-7 -4 -4 -10z"/>
<path d="M1860 9240 c0 -5 5 -10 10 -10 6 0 10 5 10 10 0 6 -4 10 -10 10 -5 0
-10 -4 -10 -10z"/>
<path d="M756 7953 c-3 -10 -9 -25 -13 -33 -5 -13 -4 -13 9 -2 18 14 31 52 18
52 -4 0 -10 -8 -14 -17z"/>
<path d="M750 7880 c0 -5 5 -10 10 -10 6 0 10 5 10 10 0 6 -4 10 -10 10 -5 0
-10 -4 -10 -10z"/>
<path d="M667 7863 c-11 -10 -8 -20 8 -27 10 -4 15 1 15 14 0 20 -11 26 -23
13z"/>
<path d="M717 7863 c-4 -3 -7 -11 -7 -17 0 -6 5 -5 12 2 6 6 9 14 7 17 -3 3
-9 2 -12 -2z"/>
<path d="M653 7823 c-16 -6 -5 -33 13 -33 8 0 14 4 14 9 0 10 19 9 38 -2 7 -5
12 -4 12 2 0 6 -1 11 -3 11 -1 0 -16 4 -32 8 -17 5 -35 7 -42 5z"/>
<path d="M665 7770 c-3 -5 -1 -10 4 -10 6 0 11 5 11 10 0 6 -2 10 -4 10 -3 0
-8 -4 -11 -10z"/>
<path d="M666 7725 c4 -8 8 -15 10 -15 2 0 4 7 4 15 0 8 -4 15 -10 15 -5 0 -7
-7 -4 -15z"/>
<path d="M620 7653 c0 -13 5 -23 10 -23 13 0 13 11 0 30 -8 12 -10 11 -10 -7z"/>
<path d="M590 7571 c0 -6 5 -13 10 -16 6 -3 10 1 10 9 0 9 -4 16 -10 16 -5 0
-10 -4 -10 -9z"/>
<path d="M540 7446 c0 -2 7 -6 15 -10 8 -3 15 -1 15 4 0 6 -7 10 -15 10 -8 0
-15 -2 -15 -4z"/>
<path d="M562 7370 c0 -14 2 -19 5 -12 2 6 2 18 0 25 -3 6 -5 1 -5 -13z"/>
<path d="M510 7075 c-11 -13 -10 -14 4 -9 9 3 16 10 16 15 0 13 -6 11 -20 -6z"/>
<path d="M515 7010 c-3 -5 -1 -10 4 -10 6 0 11 5 11 10 0 6 -2 10 -4 10 -3 0
-8 -4 -11 -10z"/>
<path d="M487 6860 c3 -11 12 -20 20 -20 11 0 11 4 3 20 -6 11 -15 20 -19 20
-5 0 -7 -9 -4 -20z"/>
<path d="M485 6750 c3 -5 8 -10 11 -10 2 0 4 5 4 10 0 6 -5 10 -11 10 -5 0 -7
-4 -4 -10z"/>
<path d="M6302 9010 c0 -14 2 -19 5 -12 2 6 2 18 0 25 -3 6 -5 1 -5 -13z"/>
<path d="M6347 9005 c-4 -8 -2 -17 3 -20 6 -4 10 3 10 14 0 25 -6 27 -13 6z"/>
<path d="M6340 8951 c0 -6 4 -12 8 -15 5 -3 9 1 9 9 0 8 -4 15 -9 15 -4 0 -8
-4 -8 -9z"/>
<path d="M6497 9140 c-3 -11 -1 -20 4 -20 5 0 9 9 9 20 0 11 -2 20 -4 20 -2 0
-6 -9 -9 -20z"/>
<path d="M6755 9178 c-9 -34 -3 -83 10 -83 14 0 19 85 6 98 -7 7 -12 2 -16
-15z"/>
<path d="M7027 9194 c-4 -4 -7 -29 -7 -56 0 -59 23 -63 28 -5 3 38 -9 73 -21
61z"/>
<path d="M7347 9156 c-4 -10 -5 -21 -2 -24 9 -9 17 6 13 25 -3 17 -4 17 -11
-1z"/>
<path d="M6850 9181 c0 -12 5 -21 10 -21 6 0 10 6 10 14 0 8 -4 18 -10 21 -5
3 -10 -3 -10 -14z"/>
<path d="M6648 8997 c-6 -16 1 -37 13 -37 12 0 12 37 0 44 -5 3 -11 0 -13 -7z"/>
<path d="M6944 8965 c-7 -38 0 -65 16 -65 5 0 10 22 10 50 0 57 -16 67 -26 15z"/>
<path d="M7040 8980 c0 -11 5 -20 10 -20 6 0 10 9 10 20 0 11 -4 20 -10 20 -5
0 -10 -9 -10 -20z"/>
<path d="M6201 8734 c-1 -23 24 -62 34 -53 3 4 -1 13 -8 21 -8 8 -17 23 -20
34 -4 18 -5 18 -6 -2z"/>
<path d="M6130 8651 c0 -5 5 -13 10 -16 6 -3 10 -2 10 4 0 5 -4 13 -10 16 -5
3 -10 2 -10 -4z"/>
<path d="M6311 8506 c-9 -11 -9 -16 0 -22 8 -4 9 -3 5 4 -10 16 6 15 24 0 12
-11 12 -10 0 7 -8 11 -15 21 -16 23 -1 1 -7 -4 -13 -12z"/>
<path d="M6322 8424 c-7 -8 -8 -14 -3 -14 10 0 25 19 20 25 -2 1 -10 -3 -17
-11z"/>
<path d="M6370 8369 c0 -31 4 -48 10 -44 6 3 10 26 10 51 0 24 -4 44 -10 44
-5 0 -10 -23 -10 -51z"/>
<path d="M6291 8334 c0 -11 3 -14 6 -6 3 7 2 16 -1 19 -3 4 -6 -2 -5 -13z"/>
<path d="M7380 7286 c0 -2 7 -7 16 -10 8 -3 12 -2 9 4 -6 10 -25 14 -25 6z"/>
<path d="M7411 7221 c-10 -6 -10 -10 -1 -16 13 -8 24 -1 19 14 -3 6 -10 7 -18
2z"/>
<path d="M7420 7180 c0 -5 5 -10 10 -10 6 0 10 5 10 10 0 6 -4 10 -10 10 -5 0
-10 -4 -10 -10z"/>
<path d="M7396 7115 c4 -8 8 -15 10 -15 2 0 4 7 4 15 0 8 -4 15 -10 15 -5 0
-7 -7 -4 -15z"/>
<path d="M7465 7089 c-4 -6 -14 -8 -22 -5 -8 3 -11 1 -8 -4 9 -15 32 -12 39 5
6 17 0 20 -9 4z"/>
<path d="M7450 7050 c0 -5 5 -10 10 -10 6 0 10 5 10 10 0 6 -4 10 -10 10 -5 0
-10 -4 -10 -10z"/>
<path d="M7570 6980 c0 -5 5 -10 10 -10 6 0 10 5 10 10 0 6 -4 10 -10 10 -5 0
-10 -4 -10 -10z"/>
<path d="M7530 6965 c0 -9 7 -18 16 -22 12 -4 13 -7 3 -14 -8 -4 -10 -11 -6
-16 5 -4 12 -1 17 7 7 10 5 18 -5 26 -11 8 -12 13 -3 22 9 9 8 12 -5 12 -9 0
-17 -7 -17 -15z"/>
<path d="M7547 6879 c7 -7 15 -10 18 -7 3 3 -2 9 -12 12 -14 6 -15 5 -6 -5z"/>
<path d="M7570 6811 c0 -5 7 -11 15 -15 8 -3 15 -1 15 3 0 5 -7 11 -15 15 -8
3 -15 1 -15 -3z"/>
<path d="M7661 6634 c0 -11 3 -14 6 -6 3 7 2 16 -1 19 -3 4 -6 -2 -5 -13z"/>
<path d="M7527 6565 c3 -8 9 -12 14 -9 12 7 11 11 -5 17 -10 4 -13 1 -9 -8z"/>
<path d="M7583 6555 c0 -8 4 -12 9 -9 5 3 6 10 3 15 -9 13 -12 11 -12 -6z"/>
<path d="M7590 6495 c0 -8 5 -15 10 -15 6 0 10 7 10 15 0 8 -4 15 -10 15 -5 0
-10 -7 -10 -15z"/>
<path d="M7620 6490 c0 -5 5 -10 10 -10 6 0 10 5 10 10 0 6 -4 10 -10 10 -5 0
-10 -4 -10 -10z"/>
<path d="M6750 8755 c0 -35 4 -54 10 -50 6 3 10 26 10 50 0 24 -4 47 -10 50
-6 4 -10 -15 -10 -50z"/>
<path d="M7698 8765 c-4 -51 0 -68 13 -59 12 7 12 91 0 98 -5 3 -11 -14 -13
-39z"/>
<path d="M6560 8755 c0 -53 11 -72 24 -39 8 20 -4 94 -15 94 -5 0 -9 -25 -9
-55z"/>
<path d="M6652 8759 c2 -30 8 -53 13 -51 15 3 12 95 -3 100 -10 3 -12 -9 -10
-49z"/>
<path d="M7400 8754 c0 -34 4 -53 10 -49 6 3 10 28 10 56 0 27 -4 49 -10 49
-5 0 -10 -25 -10 -56z"/>
<path d="M7957 8543 c-3 -5 -2 -15 2 -22 7 -10 10 -10 16 -1 4 6 3 16 -3 22
-5 5 -12 6 -15 1z"/>
<path d="M6665 8608 c-9 -24 -2 -93 10 -93 14 0 19 85 6 98 -7 7 -12 5 -16 -5z"/>
<path d="M7430 8559 c0 -11 4 -18 10 -14 5 3 7 12 3 20 -7 21 -13 19 -13 -6z"/>
<path d="M7520 8595 c0 -25 14 -34 24 -16 8 12 -3 41 -15 41 -5 0 -9 -11 -9
-25z"/>
<path d="M6460 8405 c0 -9 5 -15 11 -13 6 2 11 8 11 13 0 5 -5 11 -11 13 -6 2
-11 -4 -11 -13z"/>
<path d="M6680 8370 c0 -27 4 -50 10 -50 14 0 23 45 16 75 -11 42 -26 28 -26
-25z"/>
<path d="M7564 8406 c-9 -23 0 -79 14 -84 8 -2 12 11 12 47 0 48 -14 68 -26
37z"/>
<path d="M7660 8400 c0 -11 4 -20 9 -20 11 0 22 26 14 34 -12 12 -23 5 -23
-14z"/>
</g>
</svg>
